<?xml version="1.0" encoding="UTF-8"?>
<svg width="72px" height="72px" viewBox="0 0 72 72" version="1.1" xmlns="http://www.w3.org/2000/svg" xmlns:xlink="http://www.w3.org/1999/xlink">
    <title>OS Logo</title>
    <defs>
        <polygon id="path-1" points="0 0 72 0 72 72 0 72"></polygon>
    </defs>
    <g id="Atoms" stroke="none" stroke-width="1" fill="none" fill-rule="evenodd">
        <g id="OS-Logo">
            <g id="Group-3">
                <mask id="mask-2" fill="white">
                    <use xlink:href="#path-1"></use>
                </mask>
                <g id="Clip-2"></g>
                <path d="M36,0 C16.1185195,0 -9.29240888e-05,16.1184266 -9.29240888e-05,36.0000929 C-9.29240888e-05,55.8867772 16.1185195,72 36,72 C55.8814805,72 72.0000929,55.8867772 72.0000929,36.0000929 C72.0000929,16.1184266 55.8814805,0 36,0" id="Fill-1" fill="#012FFF" mask="url(#mask-2)"></path>
            </g>
            <polygon id="Fill-4" fill="#FFFFFF" points="45.9163755 27.4626923 49.8728974 24.8020898 53.775895 27.5409344 52.4630634 22.9618211 56.2785265 20.102361 51.5109632 19.9334251 49.9660073 15.4273501 48.3318443 19.9022026 43.5616791 19.9765418 47.3189717 22.9110846"></polygon>
            <path d="M24.6109821,45.684976 C20.6617083,45.684976 16.6035275,42.9314494 16.6035275,37.1341013 C16.6035275,31.3369391 20.6617083,28.5832267 24.6109821,28.5832267 C28.5966821,28.5832267 32.6546771,31.3369391 32.6546771,37.1341013 C32.6546771,42.9314494 28.5966821,45.684976 24.6109821,45.684976 M24.6109821,23.7641834 C17.6543131,23.7641834 11.4222662,28.8731498 11.4222662,37.1705276 C11.4222662,45.4314791 17.6543131,50.5404455 24.6109821,50.5404455 C31.6038915,50.5404455 37.8361242,45.4314791 37.8361242,37.1705276 C37.8361242,28.8731498 31.6038915,23.7641834 24.6109821,23.7641834" id="Fill-6" fill="#FFFFFF"></path>
            <path d="M51.6049838,31.6991758 C49.6846146,31.6991758 47.546803,32.532519 46.459777,34.3804075 L46.459777,32.1703009 L41.7858812,32.1703009 L41.7858812,49.9968581 L46.6047386,49.9968581 L46.6047386,39.7428708 C46.6047386,37.67754 47.8367262,36.0472798 49.9382974,36.0472798 C52.2571251,36.0472798 53.2354299,37.605245 53.2354299,39.5980951 L53.2354299,49.9968581 L58.0544731,49.9968581 L58.0544731,38.7647518 C58.0544731,34.8515326 56.0253827,31.6991758 51.6049838,31.6991758" id="Fill-8" fill="#FFFFFF"></path>
        </g>
    </g>
</svg>